<svg xmlns="http://www.w3.org/2000/svg" viewBox="0 0 32 32" width="32" height="32"><circle cx="16" cy="16" r="15" fill="#ffffff"/><path d="M16 5C9.9 5 5 9.9 5 16c0 4.9 3.2 9 7.5 10.5.5.1.7-.2.7-.5v-2c-3 .7-3.7-1.4-3.7-1.4-.5-1.3-1.2-1.6-1.2-1.6-1-.7.1-.7.1-.7 1.1.1 1.7 1.1 1.7 1.1 1 1.7 2.6 1.2 3.2.9.1-.7.4-1.2.7-1.5-2.4-.3-5-1.2-5-5.4 0-1.2.4-2.2 1.1-2.9-.1-.3-.5-1.4.1-2.9 0 0 .9-.3 3 1.1a10 10 0 0 1 5.4 0c2.1-1.4 3-1.1 3-1.1.6 1.5.2 2.6.1 2.9.7.7 1.1 1.7 1.1 2.9 0 4.2-2.6 5.1-5 5.4.4.4.8 1.1.8 2.2v3.2c0 .3.2.6.7.5A11 11 0 0 0 27 16c0-6.1-4.9-11-11-11z" fill="#003366"/></svg>
