<?xml version="1.0" encoding="utf-8"?>
<!-- Generator: Adobe Illustrator 27.5.0, SVG Export Plug-In . SVG Version: 6.00 Build 0)  -->
<svg version="1.1" id="Layer_1" xmlns="http://www.w3.org/2000/svg" xmlns:xlink="http://www.w3.org/1999/xlink" x="0px" y="0px"
	 viewBox="0 0 4000 4000" style="enable-background:new 0 0 4000 4000;" xml:space="preserve">
<g>
	<g>
		<rect transform="matrix(-1 -1.224647e-16 1.224647e-16 -1 4000 4000)" style="fill:#FED176;" width="4000" height="4000"/>
	</g>
	<g>
		<g>
			<g style="opacity:0.2;">
				<g>
					
						<ellipse transform="matrix(0.0186 -0.9998 0.9998 0.0186 -814.2753 4775.9492)" style="fill:#000072;" cx="2025.666" cy="2802.755" rx="454.716" ry="1225.447"/>
				</g>
			</g>
			<g>
				<g>
					<g>
						<path style="fill:#F78631;" d="M982.418,2388.687c-43.373,27.455-49.148,98.536-47.12,143.265
							c2.743,60.503,24.484,133.599,67.423,179.62c46.485,49.821,108.352,88.334,169.244,120.057
							c388.093,202.183,793.22,258.042,1223.092,199.697c187.953-25.51,386.226-98.277,540.165-210.927
							c63.651-46.579,124.873-107.988,154.61-181.31c29.375-72.429-1.903-152.791-34.624-218.642"/>
					</g>
					<g>
						<path style="fill:#000072;" d="M2079.756,3078.67c-328,0.005-631.109-74.291-919.512-224.54
							c-78.615-40.954-134.562-80.753-176.075-125.251c-50.637-54.274-71.541-136.719-74.219-195.778
							c-2.114-46.679,2.721-130.295,58.898-165.855c11.838-7.499,27.513-3.979,35.012,7.873c7.494,11.837,3.97,27.515-7.87,35.009
							c-36.814,23.301-36.361,98.258-35.343,120.672c2.848,62.88,26.648,127.044,60.626,163.463
							c37.462,40.154,89.072,76.649,162.418,114.866c280.957,146.366,576.519,218.748,896.458,218.758
							c101.298,0.005,204.983-7.249,311.495-21.705c192.508-26.13,385.174-101.307,528.596-206.259
							c71.618-52.413,122.132-111.328,146.081-170.372c25.526-62.937-2.778-135.315-33.834-197.815
							c-6.235-12.552-1.117-27.779,11.432-34.012c12.545-6.242,27.777-1.122,34.014,11.43
							c33.974,68.379,68.705,157.393,35.412,239.47c-27.492,67.784-83.903,134.265-163.137,192.254
							c-150.024,109.779-351.124,188.361-551.737,215.589C2289.54,3071.253,2183.398,3078.67,2079.756,3078.67z"/>
					</g>
					<g>
						<path style="fill:#995834;" d="M3129.556,2412.574c-29.42,77.824-94.412,139.111-159.704,187.305
							c-62.914,46.439-134.936,84.723-205.544,115.727c-109.903,48.259-228.577,84.416-350.085,101.806
							c-0.787,0.145-1.585,0.281-2.36,0.372c-441.474,51.494-862.406,2.499-1263.409-206.328
							c-62.898-32.755-126.781-72.534-174.788-123.967c-44.367-47.532-65.691-122.01-69.657-185.554
							c-0.418-6.698-0.285-15.009,0.21-24.11c2.234-41.045,8.368-101.157,48.455-123.917
							c703.73,130.268,1433.516,137.273,2141.104,32.827c17.894,37.381,34.486,72.387,42.967,107.93
							C3145.574,2331.671,3145.818,2369.56,3129.556,2412.574z"/>
					</g>
					<g>
						<path style="fill:#000072;" d="M2086.185,2865.823c-338.682,0.005-651.654-76.707-949.441-231.847
							c-81.113-42.259-138.834-83.314-181.651-129.206c-52.15-55.894-73.682-140.838-76.441-201.699
							c-2.177-48.036,2.778-134.073,60.449-170.578c11.84-7.499,27.518-3.97,35.009,7.868c7.496,11.843,3.972,27.516-7.868,35.014
							c-38.409,24.308-37.951,102.127-36.893,125.395c2.953,65.143,27.623,131.628,62.848,169.384
							c38.766,41.549,92.148,79.305,167.991,118.822c290.339,151.251,595.776,226.055,926.389,226.064
							c104.678,0.005,211.815-7.489,321.882-22.428c198.988-27.007,398.143-104.721,546.396-213.215
							c74.106-54.226,126.382-115.207,151.175-176.341c26.494-65.325-2.812-140.296-34.973-205.021
							c-6.235-12.552-1.117-27.779,11.432-34.012c12.545-6.242,27.777-1.122,34.014,11.43
							c35.017,70.474,70.817,162.197,36.553,246.676c-28.338,69.88-86.511,138.421-168.231,198.223
							c-154.857,113.322-362.446,194.44-569.541,222.545C2302.804,2858.162,2193.202,2865.823,2086.185,2865.823z"/>
					</g>
					<g>
						<path style="fill:#FFB140;" d="M3143.395,2299.596c-28.41,43.661-91.479,77.174-138.739,109.477
							c-87.016,59.484-151.723,146.445-211.377,227.379c-38.116,51.642-81.261,145.554-131.823,164.856
							c-70.732,26.981-224.677-33.281-316.06-59.411c-143.191-40.893-285.166-98.14-432.387-124.396
							c-303.755-54.188-608.763-92.99-883.419-222.077c-43.222-20.295-96.744-49.694-118.171-87.033
							c-13.938-24.26-18.598-53.771-15.155-83.023c2.17-18.484,7.666-36.852,16.089-53.823c1.821,0.248,2.732,0.373,4.553,0.621
							c723.628,100.818,1467.765,94.9,2192.528,13.451c12.383,9.788,24.442,28.268,32.018,48.222
							c4.35,11.464,7.393,23.977,8.037,35.533C3150.184,2281.036,3148.48,2291.797,3143.395,2299.596z"/>
					</g>
					<g>
						<path style="fill:#F78631;" d="M3149.487,2269.372c-166.009,184.194-611.162,310.255-1131.699,300.573
							c-522.469-9.718-963.95-153.29-1121.526-344.577c2.17-18.484,7.666-36.852,16.089-53.823c1.821,0.248,2.732,0.373,4.553,0.621
							c723.628,100.818,1467.765,94.9,2192.528,13.451c12.383,9.788,24.442,28.268,32.018,48.222
							C3145.801,2245.303,3148.844,2257.816,3149.487,2269.372z"/>
					</g>
					<g style="opacity:0.4;">
						<g>
							<path style="fill:#FFFFFF;" d="M3143.415,2299.601c-28.457,43.66-91.48,77.154-138.737,109.459
								c-87.026,59.49-151.734,146.457-211.421,227.389c-38.101,51.662-81.233,145.543-131.802,164.856
								c-70.724,27.009-224.66-33.281-316.078-59.398c-143.194-40.908-285.142-98.148-432.344-124.397
								c-303.806-54.175-608.804-93.013-883.437-222.088c-43.225-20.315-97.057-49.782-118.172-87.005
								c-13.539-23.867-20.254-58.302-13.396-94.512c2.547,16.552,7.214,33.253,14.306,45.579
								c21.075,36.635,75.164,65.059,118.221,84.397c276.019,123.97,580.891,159.328,883.614,212.555
								c147.263,25.893,289.427,83.52,432.33,125.186c91.507,26.681,245.23,88.431,316.026,62.233
								c50.323-18.622,93.73-112.114,131.771-163.169c59.503-79.862,124.269-165.997,211.356-223.868
								c47.104-31.301,110.73-63.818,138.683-106.588c0.529-0.81,0.993-1.868,1.443-2.818
								C3150.788,2266.449,3151.616,2287.019,3143.415,2299.601z"/>
						</g>
					</g>
					<g>
						<path style="fill:#000072;" d="M2616.812,2833.494c-63.867,0-146.169-25.977-220.882-49.556
							c-20.774-6.559-40.398-12.753-57.512-17.639c-48.911-13.976-98.32-30.042-146.105-45.586
							c-92.464-30.071-188.078-61.168-283.732-78.227c-42.4-7.561-85.543-14.945-127.265-22.088
							c-257.183-44.028-523.121-89.556-762.502-202.02c-44.356-20.842-106.068-53.674-129.777-98.004
							c-28.278-52.869-12.224-115.638,9.34-175.588c4.747-13.19,19.293-20.031,32.463-15.29
							c13.187,4.742,20.031,19.279,15.29,32.463c-16.395,45.581-32.219,97.323-12.343,134.48
							c12.286,22.97,48.153,48.544,106.608,76.007c233.151,109.54,483.955,152.474,749.485,197.93
							c41.808,7.158,85.037,14.561,127.61,22.151c99.107,17.677,196.416,49.321,290.519,79.929
							c47.355,15.4,96.323,31.327,144.35,45.044c17.783,5.082,37.73,11.377,58.847,18.042
							c81.175,25.617,192.338,60.717,241.196,42.062c28.338-10.816,60.152-62.041,85.713-103.201
							c12.003-19.326,23.34-37.584,34.722-53.012c58.958-79.943,125.783-170.554,217.542-233.28
							c11.068-7.566,22.807-15.011,35.234-22.898c37.649-23.881,80.32-50.951,95.736-78.131
							c10.428-18.382-4.044-59.447-29.215-82.901c-10.253-9.555-10.819-25.612-1.263-35.863c9.553-10.251,25.61-10.816,35.86-1.266
							c38.085,35.493,63.73,101.049,38.759,145.067c-21.669,38.207-67.943,67.559-112.692,95.947
							c-12.051,7.647-23.433,14.863-33.782,21.94c-84.658,57.874-148.773,144.808-205.34,221.505
							c-10.179,13.803-20.997,31.222-32.451,49.666c-32.646,52.567-66.404,106.922-110.729,123.837
							C2654.933,2830.953,2636.769,2833.494,2616.812,2833.494z"/>
					</g>
					<g>
						<path style="fill:#DD4040;" d="M3159.967,2098.608c-0.575,7.774-1.525,15.596-2.906,23.41
							c-3.573,21.787-10.045,43.52-19.923,63.632c-34.94,71.406-105.634,107.892-174.192,139.155
							c-106.68,48.648-221.326,83.886-334.979,111.841c-128.969,31.696-258.131,53.456-387.316,64.959
							c-29.258,2.624-58.56,4.71-87.798,6.26c-303.023,16.163-605.582-24.365-904.28-125.28
							c-64.991-21.934-126.655-46.599-187.108-78.651c-38.92-20.59-80.285-56.958-104.914-92.478
							c-17.674-25.564-32.024-62.343-37.57-96.112c-1.402-8.348-2.271-16.472-2.503-24.208c-0.346-10.262-0.362-20.947,0.583-31.346
							c5.082-56.713,22.284-112.664,48.195-163.405c704.777,28.895,1410.537,30.907,2115.721,20.667
							C3136.553,1957.281,3165.135,2031.48,3159.967,2098.608z"/>
					</g>
					<g>
						<path style="fill:#BC2E2E;" d="M3159.967,2098.608c-0.575,7.774-1.525,15.596-2.906,23.41
							c-9.906,10.125-21.123,18.453-33.475,24.398c-73.246,35.095-174.137,0.573-239.782,51.327
							c-76.431,59.091-101.13,177.454-212.028,184.412c-81.01,5.097-183.027-87.327-263.721-38.625
							c-64.458,38.964-101.538,124.344-167.403,158.073c-6.613,3.367-13.486,6.246-20.669,8.475
							c-23.871,7.449-46.064,5.533-67.129-2.215c-83.459-30.654-150.025-152.648-239.99-148.254
							c-75.561,3.695-128.006,95.341-205.725,99.586c-109.698,5.96-170.248-136.379-275.901-151.607
							c-41.179-5.974-83.725,12.457-121.535,24.532c-35.27,11.21-91.833,9.568-119.782-17.746
							c-37.705-36.837-51.12-97.921-90.476-129.741c-32.107-26.048-88.053-23.276-127.364-34.424
							c-20.618-5.806-38.478-18.381-53.098-34.868c-1.402-8.348-2.271-16.472-2.503-24.208c-0.346-10.262-0.362-20.947,0.583-31.346
							c5.082-56.713,22.284-112.664,48.195-163.405c704.777,28.895,1410.537,30.907,2115.721,20.667
							C3136.553,1957.281,3165.135,2031.48,3159.967,2098.608z"/>
					</g>
					<g style="opacity:0.4;">
						<g>
							<path style="fill:#FFFFFF;" d="M3137.139,2185.669c-35.368,70.088-105.637,107.847-174.18,139.113
								c-106.667,48.656-221.345,83.921-334.97,111.847c-460.817,113.255-924.594,99.673-1379.417-54.042
								c-64.97-21.957-126.637-46.615-187.127-78.636c-38.888-20.586-80.431-56.066-104.884-92.508
								c-29.626-44.15-43.995-98.356-39.51-151.677c0.253-3.011,0.542-6.032,0.884-9.041c3.244,38.681,16.579,76.432,39.567,110.142
								c24.464,35.874,66.132,70.457,104.927,90.203c60.677,30.883,122.35,54.429,187.189,75.325
								c455.317,146.739,918.44,159.565,1379.465,51.443c113.448-26.606,228.02-60.118,334.878-106.916
								c68.315-29.918,139.156-64.832,174.114-135.513c11.239-22.725,18.421-47.289,21.515-72.203
								C3163.962,2102.062,3154.511,2151.242,3137.139,2185.669z"/>
						</g>
					</g>
					<g>
						<path style="fill:#000072;" d="M2024.159,2536.563c-265.238,0-527.247-43.347-783.706-129.954
							c-73.996-24.984-134.646-50.481-190.866-80.24c-44.445-23.517-88.168-62.127-114.109-100.766
							c-33.444-49.815-48.968-109.516-43.711-168.104c5.202-57.982,22.81-117.697,50.915-172.692
							c6.377-12.478,21.659-17.421,34.141-11.047c12.478,6.377,17.423,21.664,11.047,34.141
							c-25.178,49.263-40.933,102.564-45.56,154.133c-4.222,47.043,8.316,95.089,35.302,135.281
							c21.223,31.615,58.792,64.668,95.712,84.201c53.751,28.45,112.016,52.922,183.363,77.014
							c251.104,84.8,507.771,127.245,767.536,127.255c197.77,0.005,397.309-24.591,597.716-73.825
							c129.437-31.802,237.547-67.875,330.512-110.292c67.727-30.896,131.072-63.867,161.869-127.097
							c35.98-73.864,28.021-185.297-47.571-236.519c-11.603-7.861-14.633-23.637-6.772-35.237
							c7.856-11.598,23.632-14.642,35.237-6.772c98.09,66.466,109.973,207.862,64.73,300.751
							c-38.138,78.294-113.011,117.551-186.431,151.045c-95.88,43.74-206.92,80.835-339.468,113.399
							C2429.611,2511.463,2225.944,2536.558,2024.159,2536.563z"/>
					</g>
					<g>
						<path style="fill:#49C437;" d="M3124.931,2074.063c-73.246,35.095-174.137,0.573-239.782,51.327
							c-76.431,59.091-101.13,177.455-212.028,184.412c-81.01,5.098-183.027-87.327-263.721-38.624
							c-70.92,42.87-108.683,141.876-188.072,166.548c-118.434,36.832-194.422-155.944-307.119-150.469
							c-75.561,3.695-128.006,95.341-205.725,99.587c-109.698,5.96-170.248-136.38-275.901-151.607
							c-41.179-5.974-83.725,12.457-121.535,24.532c-35.27,11.21-91.833,9.567-119.782-17.745
							c-37.705-36.837-51.12-97.921-90.476-129.741c-32.107-26.048-88.054-23.276-127.364-34.424
							c-62.706-17.758-100.306-97.762-97.089-161.06c1.353-26.553,12.536-56.198,28.045-81.736l0.001-0.054
							c9.306-15.344,20.14-29.157,31.347-39.901c33.02-31.656,78.413-61.792,120.616-81.948
							c645.807-30.889,1293.327-44.242,1939.393-14.023c56.221,14.201,102.899,27.633,149.063,57.164
							c3.342,2.156,6.724,5.119,9.84,7.861c9.034,7.954,17.029,16.908,23.936,26.594c22.035,30.639,33.786,68.604,35.725,105.796
							C3217.536,1959.485,3184.742,2045.375,3124.931,2074.063z"/>
					</g>
					<g>
						<path style="fill:#31A319;" d="M3178.578,1790.755c-51.328,233.685-554.26,409.035-1163.628,397.701
							c-532.023-9.896-977.697-158.969-1110.568-353.393l0.001-0.054c9.306-15.344,20.14-29.157,31.347-39.901
							c33.02-31.656,78.413-61.792,120.616-81.948c645.807-30.889,1293.327-44.242,1939.393-14.023
							c56.221,14.201,102.899,27.633,149.063,57.164c3.342,2.156,6.724,5.119,9.84,7.861
							C3163.677,1772.114,3171.671,1781.068,3178.578,1790.755z"/>
					</g>
					<g style="opacity:0.4;">
						<g>
							<path style="fill:#FFFFFF;" d="M3124.936,2074.067c-73.232,35.095-174.136,0.59-239.792,51.329
								c-76.444,59.077-101.122,177.434-212.034,184.423c-81.002,5.105-183.003-87.347-263.686-38.632
								c-70.945,42.835-108.718,141.874-188.099,166.542c-118.431,36.803-194.429-155.933-307.113-150.45
								c-75.554,3.676-128,95.308-205.731,99.539c-109.697,5.971-170.219-136.362-275.879-151.596
								c-41.177-5.937-83.748,12.493-121.566,24.532c-35.279,11.23-91.825,9.602-119.779-17.727
								c-37.676-36.833-51.13-97.91-90.473-129.771c-32.1-25.996-88.036-23.235-127.375-34.385
								c-62.7-17.772-101.439-99.1-97.089-161.073c0.489-6.964,1.678-13.933,3.034-20.601
								c9.888,51.923,46.494,104.211,95.244,117.798c38.168,10.638,95.236,5.837,127.436,31.094
								c39.351,30.866,52.82,91.785,90.511,127.696c28.206,26.873,84.159,28.641,119.822,15.407
								c36.65-13.6,82.851-31.025,121.602-26.477c104.56,12.272,166.541,155.372,275.936,148.528
								c77.845-4.87,130.04-96.698,205.751-100.607c112.928-5.83,188.474,187,307.109,150.671
								c79.282-24.278,117.061-123.127,188.077-165.345c80.886-48.085,182.768,45.603,263.627,41.776
								c110.713-5.239,135.315-123.043,211.965-180.667c65.931-49.566,168.909-11.438,239.683-45.49
								c48.023-23.105,76.274-79.47,86.2-132.284c0.929,6.029,1.656,12.223,1.979,18.263
								C3217.661,1959.4,3184.769,2045.393,3124.936,2074.067z"/>
						</g>
					</g>
					<g>
						<path style="fill:#000072;" d="M2191.143,2467.858c-59.715,0.005-108.784-44.296-152.956-84.177
							c-41.628-37.574-80.89-73.111-122.76-71.04c-29.927,1.458-58.004,22.247-87.725,44.258
							c-35,25.919-71.188,52.72-117.829,55.266c-68.997,3.749-118.44-39.698-166.27-81.731
							c-37.478-32.933-72.878-64.04-114.631-70.071c-28.374-4.099-60.034,6.645-90.654,17.04c-6.64,2.253-13.175,4.468-19.576,6.506
							c-44.195,14.086-110.112,10.562-145.206-23.718c-20.547-20.075-34.017-44.862-47.043-68.834
							c-12.775-23.507-24.84-45.715-41.681-59.365c-15.894-12.883-44.076-16.948-71.33-20.885
							c-15.812-2.277-32.161-4.636-46.986-8.836c-75.417-21.345-120.615-114.042-115.509-187.224
							c6.216-89.086,69.693-162.545,194.054-224.571c12.547-6.247,27.774-1.158,34.031,11.382
							c6.254,12.54,1.158,27.777-11.382,34.031c-106.895,53.315-161.222,113.073-166.078,182.691
							c-3.637,52.116,29.249,120.864,78.704,134.864c11.586,3.28,25.588,5.298,40.413,7.437c32.473,4.689,69.28,9.996,96.041,31.691
							c24.66,19.993,39.734,47.729,54.312,74.554c11.749,21.618,22.846,42.038,37.917,56.767
							c18.979,18.54,64.948,21.029,94.336,11.67c6.106-1.947,12.339-4.066,18.675-6.214c34.597-11.737,73.789-25.046,114.221-19.211
							c56.671,8.189,99.474,45.806,140.869,82.182c42.024,36.927,81.669,71.687,130.007,69.179
							c31.44-1.716,60.075-22.927,90.393-45.375c34.494-25.55,70.165-51.963,115.463-54.168
							c62.681-3.073,111.791,41.238,159.229,84.062c49.306,44.512,91.884,82.968,141.593,67.506
							c37.656-11.703,66.068-45.572,96.148-81.425c25.485-30.373,51.838-61.782,86.354-82.628
							c58.816-35.527,123.549-10.811,180.661,10.989c34.709,13.252,67.547,25.756,94.578,24.054
							c58.725-3.701,88.868-45.773,123.772-94.49c21.491-29.994,43.716-61.01,74.333-84.68
							c42.52-32.871,94.334-35.187,144.443-37.426c36.858-1.645,71.67-3.198,99.893-16.723
							c48.391-23.186,77.853-98.014,75.005-153.351c-2.184-42.453-20.973-96.103-58.028-120.265
							c-41.973-27.367-86.97-40.06-141.43-53.813c-13.587-3.431-21.82-17.224-18.389-30.812
							c3.43-13.585,17.222-21.817,30.812-18.389c59.111,14.925,108.185,28.856,156.724,60.506
							c45.727,29.817,77.52,92.684,80.991,160.164c3.752,72.924-34.034,168.315-103.755,201.728
							c-37.553,17.994-79.243,19.854-119.56,21.652c-44.157,1.975-85.864,3.836-115.669,26.878
							c-24.735,19.12-43.865,45.821-64.119,74.089c-37.064,51.728-79.073,110.359-161.831,115.581
							c-38.099,2.359-77.632-12.696-115.871-27.295c-50.766-19.379-98.711-37.685-136.326-14.959
							c-27.295,16.483-49.841,43.357-73.71,71.807c-33.468,39.89-68.074,81.137-119.963,97.27
							C2215.813,2466.036,2203.257,2467.858,2191.143,2467.858z"/>
					</g>
					<g>
						<path style="fill:#000072;" d="M968.262,1949.758c0.938-5.338,2.012-9.768,3.446-14.473c1.368-4.646,3.035-9.182,4.907-13.672
							c3.782-8.947,8.652-17.571,14.764-25.497c6.011-8.02,13.663-14.974,22.252-20.495c8.55-5.862,18.327-9.021,28.184-11.5
							c9.285-2.336,18.587,4.338,20.747,14.984c2.16,10.646-3.649,21.134-12.945,23.343c-0.983,0.234-1.966,0.366-2.94,0.404
							c-0.454,0.013-0.682,0.019-1.136,0.032c-6.398,0.198-13.04,0.428-19.136,2.961c-6.176,2.229-12.265,5.57-17.684,10.43
							c-5.482,4.73-10.531,10.537-14.908,17.12c-2.169,3.303-4.234,6.754-6.061,10.369c-1.856,3.502-3.578,7.54-4.836,10.868
							c-0.112,0.294-0.168,0.442-0.279,0.736c-1.602,4.232-6.021,6.022-9.868,4.02
							C969.403,1957.634,967.591,1953.565,968.262,1949.758z"/>
					</g>
					<g>
						<path style="fill:#000072;" d="M1271.443,2171.021c-1.444-14.556-2.109-28.917-2.342-43.44
							c-0.17-14.491,0.102-29.044,1.228-43.648c2.379-29.118,7.008-58.897,20.588-87.923c4.729-10.109,15.599-13.574,24.292-7.649
							c8.691,5.924,11.898,19.049,7.151,29.227c-0.596,1.278-1.362,2.547-2.137,3.599c-6.477,8.795-12.239,19.559-17.148,31.203
							c-4.828,11.744-8.72,24.416-12.135,37.398c-3.357,13.026-5.979,26.485-8.186,40.113c-2.15,13.618-3.895,27.548-4.878,41.409
							c-0.003,0.047-0.005,0.07-0.008,0.117c-0.149,2.097-1.711,3.532-3.488,3.205
							C1272.824,2174.347,1271.619,2172.805,1271.443,2171.021z"/>
					</g>
					<g>
						<path style="fill:#000072;" d="M1697.868,2232.234c-1.37-22.725-3.835-45.503-7.167-67.688
							c-3.359-22.175-7.788-43.951-13.754-63.97c-3.548-11.904,1.37-24.93,10.994-29.144c9.624-4.214,20.313,2.003,23.866,13.934
							c0.587,1.968,0.942,3.969,1.084,5.956c0.006,0.129,0.01,0.193,0.017,0.321c1.653,24.806,1.102,48.679-0.491,72.156
							c-1.647,23.479-4.22,46.459-7.89,69.255c-0.36,2.236-2.129,3.641-3.951,3.14c-1.517-0.417-2.592-2.025-2.702-3.84
							C1697.871,2232.307,1697.87,2232.283,1697.868,2232.234z"/>
					</g>
					<g>
						<path style="fill:#000072;" d="M2704.094,2208.083c-2.585-13.339-6.117-26.64-10.128-39.459
							c-4.047-12.846-8.732-25.308-13.97-37.261c-5.143-12.026-11.285-23.232-17.751-33.813
							c-6.493-10.601-13.997-19.883-21.688-28.363c-0.134-0.148-0.201-0.221-0.335-0.369c-7.266-8.012-7.516-21.933-0.56-30.997
							c6.957-9.063,18.472-9.84,25.722-1.833c0.881,0.974,1.718,2.13,2.386,3.253c7.618,12.8,14.26,26.055,19.404,39.826
							c5.119,13.76,9.514,27.633,12.685,41.813c3.271,14.13,5.793,28.352,7.585,42.655c1.761,14.343,2.926,28.588,3.149,43.222
							c0.033,2.154-1.406,4.059-3.213,4.255c-1.578,0.171-2.915-1.017-3.252-2.757
							C2704.114,2208.186,2704.107,2208.152,2704.094,2208.083z"/>
					</g>
					<g>
						<path style="fill:#000072;" d="M2803.099,2125.493c-0.647-9.787-2.088-19.686-4.099-29.071
							c-2.016-9.409-4.733-18.452-8.265-26.531c-3.542-8.028-7.951-15.129-13.081-19.789c-5.09-4.8-10.635-6.923-16.358-7.301
							c-8.716-0.575-15.083-9.516-14.204-19.947c0.879-10.431,8.668-18.34,17.381-17.686c1.467,0.11,2.867,0.455,4.176,1.001
							c0.436,0.187,0.655,0.281,1.091,0.468c5.433,2.306,10.589,5.456,15.146,9.402c4.539,3.99,8.345,8.747,11.481,13.754
							c6.285,10.097,9.649,21.165,11.768,31.93c2.054,10.828,2.808,21.572,2.804,32.187c-0.026,10.646-0.699,21.042-2.203,31.603
							c-0.262,1.841-1.727,3.183-3.272,2.996c-1.31-0.158-2.256-1.365-2.354-2.852
							C2803.105,2125.591,2803.103,2125.559,2803.099,2125.493z"/>
					</g>
					<g>
						<path style="fill:#FCA054;" d="M3134.401,1768.239c-1.896,101.955-141.524,191.295-362.867,251.132
							c-186.485,50.428-430.728,79.798-699.415,78.409c-15.988-0.039-32.102-0.21-48.214-0.51
							c-609.677-11.34-1100.953-177.012-1097.362-370.098c0.909-48.852,18.024-123.32,57.102-207.048
							c114.841-247.105,420.205-574.738,1061.463-562.811c585.446,10.889,880.608,294.118,1007.915,534.509
							C3112.57,1603.949,3135.544,1706.755,3134.401,1768.239z"/>
					</g>
					<g style="opacity:0.3;">
						<path style="fill:#FFFFFF;" d="M2045.178,957.323c-858.628-15.97-1115.089,576.674-1118.681,769.806
							c-0.229,12.332,1.599,24.627,5.335,36.729c43.725-218.88,294.914-664.668,972.101-706.924
							c-0.145,0.924-0.348,1.836-0.446,2.771c-6.814,64.507,96.947,128.344,231.752,142.584
							c134.809,14.241,249.613-26.509,256.427-91.016c0.467-4.396,0.368-8.788-0.168-13.163
							c515.75,129.602,704.58,510.708,736.188,706.59c4.184-11.955,6.463-24.172,6.693-36.505
							C3137.97,1575.064,2903.725,973.292,2045.178,957.323z"/>
					</g>
					<g>
						<path style="fill:#000072;" d="M2090.078,2123.307c-22.098,0-44.284-0.206-66.593-0.623
							c-297.399-5.528-576.658-47.528-786.331-118.253c-218.631-73.746-337.956-172.393-335.997-277.768
							c4.001-214.896,275.457-795.004,1110.397-795.004c11.26,0,22.613,0.105,34.079,0.316
							c861.659,16.028,1118.181,618.903,1114.132,836.697c-1.961,105.373-124.872,199.515-346.094,265.084
							C2617.425,2091.918,2362.572,2123.307,2090.078,2123.307z M2011.672,982.406c-433.97,0-689.643,161.778-828.596,299.454
							c-166.599,165.069-229.529,357.009-231.178,445.748c-2.913,156.607,427.363,332.341,1072.532,344.342
							c292.307,5.403,567.511-25.406,774.822-86.85c195.375-57.905,308.282-137.134,309.774-217.372
							c1.652-88.739-54.096-282.884-214.44-454.035c-137.093-146.328-395.825-322.532-849.896-330.977
							C2033.575,982.506,2022.56,982.406,2011.672,982.406z"/>
					</g>
					<g>
						<g>
							<path style="fill:#F78631;" d="M1483.486,1341.33c-0.358,19.256,29.269,34.652,66.644,34.511
								c37.376-0.141,68.331-16.523,68.706-36.714c0.375-20.191-29.983-35.891-67.376-34.815
								C1514.068,1305.388,1483.844,1322.074,1483.486,1341.33z"/>
						</g>
						<g>
							<path style="fill:#FFF1B6;" d="M1495.339,1331.862c-0.328,17.66,26.777,31.66,60.929,31.392
								c34.151-0.268,62.405-15.327,62.748-33.757c0.343-18.43-27.365-32.707-61.531-31.669
								C1523.319,1298.866,1495.668,1314.202,1495.339,1331.862z"/>
						</g>
						<g>
							<path style="fill:#E2D28D;" d="M1495.351,1331.876c-0.328,17.63,26.764,31.636,60.932,31.368
								c26.958-0.211,50.212-9.56,59.005-22.629c-11.245,5.771-26.353,9.333-42.862,9.52c-34.255,0.388-61.425-13.594-61.094-31.37
								c0.07-3.744,1.361-7.372,3.714-10.776C1503.064,1314.229,1495.522,1322.704,1495.351,1331.876z"/>
						</g>
					</g>
					<g>
						<g>
							<path style="fill:#F78631;" d="M1640.627,1199.578c-0.358,19.256,29.268,34.652,66.644,34.511
								c37.376-0.141,68.33-16.523,68.706-36.714c0.375-20.191-29.982-35.891-67.376-34.815S1640.985,1180.322,1640.627,1199.578z"
								/>
						</g>
						<g>
							<path style="fill:#FFF1B6;" d="M1652.48,1190.109c-0.329,17.66,26.777,31.66,60.929,31.392
								c34.151-0.268,62.405-15.327,62.748-33.757c0.343-18.43-27.365-32.707-61.531-31.669
								C1680.46,1157.114,1652.808,1172.45,1652.48,1190.109z"/>
						</g>
						<g>
							<path style="fill:#E2D28D;" d="M1652.492,1190.123c-0.328,17.63,26.764,31.636,60.932,31.368
								c26.958-0.211,50.212-9.56,59.005-22.629c-11.245,5.771-26.353,9.333-42.862,9.52c-34.255,0.388-61.425-13.594-61.094-31.37
								c0.07-3.744,1.361-7.372,3.714-10.776C1660.204,1172.477,1652.663,1180.951,1652.492,1190.123z"/>
						</g>
					</g>
					<g>
						<g>
							<path style="fill:#F78631;" d="M2380.174,1301.592c-0.358,19.256,29.269,34.652,66.644,34.511
								c37.376-0.141,68.331-16.523,68.706-36.714c0.375-20.191-29.983-35.891-67.376-34.815
								C2410.756,1265.649,2380.533,1282.336,2380.174,1301.592z"/>
						</g>
						<g>
							<path style="fill:#FFF1B6;" d="M2392.028,1292.123c-0.329,17.66,26.777,31.66,60.929,31.392
								c34.151-0.268,62.405-15.327,62.748-33.757s-27.365-32.707-61.531-31.669
								C2420.007,1259.127,2392.356,1274.463,2392.028,1292.123z"/>
						</g>
						<g>
							<path style="fill:#E2D28D;" d="M2392.04,1292.137c-0.328,17.63,26.764,31.636,60.932,31.368
								c26.958-0.211,50.212-9.56,59.005-22.629c-11.245,5.771-26.353,9.333-42.862,9.52c-34.255,0.388-61.425-13.594-61.094-31.37
								c0.07-3.744,1.361-7.372,3.714-10.776C2399.752,1274.49,2392.21,1282.965,2392.04,1292.137z"/>
						</g>
					</g>
					<g>
						<g>
							<path style="fill:#F78631;" d="M1843.95,1326.038c-0.358,19.256,29.269,34.652,66.644,34.511
								c37.376-0.141,68.331-16.523,68.706-36.714c0.376-20.191-29.983-35.891-67.376-34.815
								C1874.532,1290.095,1844.308,1306.781,1843.95,1326.038z"/>
						</g>
						<g>
							<path style="fill:#FFF1B6;" d="M1855.803,1316.569c-0.328,17.66,26.777,31.66,60.929,31.392
								c34.151-0.268,62.405-15.327,62.748-33.757c0.343-18.43-27.365-32.707-61.531-31.669
								C1883.783,1283.573,1856.132,1298.909,1855.803,1316.569z"/>
						</g>
						<g>
							<path style="fill:#E2D28D;" d="M1855.816,1316.583c-0.328,17.63,26.764,31.636,60.932,31.368
								c26.958-0.211,50.212-9.56,59.005-22.629c-11.245,5.771-26.353,9.333-42.862,9.52c-34.255,0.388-61.425-13.594-61.094-31.37
								c0.07-3.744,1.361-7.372,3.714-10.776C1863.528,1298.936,1855.986,1307.411,1855.816,1316.583z"/>
						</g>
					</g>
					<g>
						<g>
							<path style="fill:#F78631;" d="M2091.223,1247.12c-0.358,19.256,29.269,34.652,66.644,34.511
								c37.376-0.141,68.331-16.523,68.706-36.714c0.375-20.191-29.982-35.891-67.375-34.815
								C2121.804,1211.177,2091.581,1227.864,2091.223,1247.12z"/>
						</g>
						<g>
							<path style="fill:#FFF1B6;" d="M2103.076,1237.651c-0.328,17.66,26.777,31.66,60.929,31.392
								c34.151-0.268,62.405-15.327,62.748-33.757s-27.365-32.707-61.531-31.669
								C2131.056,1204.656,2103.404,1219.991,2103.076,1237.651z"/>
						</g>
						<g>
							<path style="fill:#E2D28D;" d="M2103.088,1237.665c-0.328,17.63,26.764,31.636,60.932,31.368
								c26.958-0.212,50.212-9.56,59.005-22.63c-11.246,5.771-26.353,9.333-42.862,9.52c-34.255,0.388-61.425-13.594-61.094-31.37
								c0.07-3.744,1.361-7.372,3.715-10.776C2110.8,1220.019,2103.259,1228.493,2103.088,1237.665z"/>
						</g>
					</g>
					<g>
						<g>
							<path style="fill:#F78631;" d="M1905.787,1107.238c-0.358,19.256,29.269,34.652,66.644,34.511
								c37.376-0.141,68.331-16.523,68.706-36.714c0.375-20.191-29.983-35.891-67.376-34.815
								C1936.369,1071.295,1906.145,1087.982,1905.787,1107.238z"/>
						</g>
						<g>
							<path style="fill:#FFF1B6;" d="M1917.64,1097.769c-0.328,17.66,26.777,31.66,60.929,31.392
								c34.151-0.268,62.405-15.327,62.748-33.757c0.343-18.43-27.365-32.707-61.531-31.669
								C1945.62,1064.774,1917.969,1080.11,1917.64,1097.769z"/>
						</g>
						<g>
							<path style="fill:#E2D28D;" d="M1917.652,1097.783c-0.328,17.63,26.764,31.636,60.932,31.368
								c26.958-0.212,50.212-9.56,59.005-22.63c-11.245,5.771-26.353,9.333-42.862,9.52c-34.255,0.388-61.425-13.594-61.094-31.37
								c0.07-3.744,1.361-7.372,3.714-10.776C1925.365,1080.137,1917.823,1088.611,1917.652,1097.783z"/>
						</g>
					</g>
					<g>
						<g>
							<path style="fill:#F78631;" d="M2228.53,1139.709c-0.358,19.256,29.269,34.652,66.645,34.511
								c37.375-0.141,68.33-16.523,68.706-36.714c0.375-20.191-29.983-35.891-67.376-34.815S2228.888,1120.453,2228.53,1139.709z"/>
						</g>
						<g>
							<path style="fill:#FFF1B6;" d="M2240.383,1130.241c-0.329,17.66,26.777,31.66,60.929,31.392
								c34.151-0.268,62.405-15.327,62.748-33.757s-27.365-32.707-61.531-31.669
								C2268.363,1097.245,2240.711,1112.581,2240.383,1130.241z"/>
						</g>
						<g>
							<path style="fill:#E2D28D;" d="M2240.396,1130.255c-0.328,17.63,26.764,31.636,60.932,31.368
								c26.958-0.211,50.212-9.56,59.005-22.629c-11.245,5.771-26.353,9.333-42.862,9.52c-34.255,0.388-61.425-13.594-61.094-31.37
								c0.07-3.744,1.362-7.372,3.715-10.776C2248.108,1112.608,2240.566,1121.083,2240.396,1130.255z"/>
						</g>
					</g>
				</g>
				<g>
					<path style="fill:#000072;" d="M2011.64,931.656c11.205,0,22.563,0.105,33.995,0.319
						c820.573,15.263,1092.333,562.731,1112.888,803.008c0.048,0.029,0.089,0.055,0.136,0.086
						c45.73,29.814,77.522,92.684,80.993,160.164c2.759,53.684-17.011,119.512-55.436,163.856
						c4.145,48.319-4.708,97.544-24.27,137.702c-1.28,2.632-2.707,5.106-4.071,7.65c19.566,34.467,27.312,76.479,9.611,107.679
						c-0.348,0.616-0.758,1.21-1.122,1.822c5.085,35.932,3.085,72.696-11.308,108.183c-9.817,24.215-23.303,48.257-40.027,71.841
						c15.395,49.81,21.031,103.578,0.312,154.66c-27.492,67.787-83.901,134.265-163.132,192.249
						c-150.027,109.784-351.131,188.365-551.742,215.593c-108.94,14.786-215.128,22.203-318.794,22.203
						c-13.348,0-26.662-0.122-39.926-0.369c-312.715-5.806-602.844-80.042-879.507-224.171
						c-78.598-40.949-134.548-80.749-176.07-125.251c-50.634-54.269-71.541-136.717-74.223-195.78
						c-1.021-22.544-0.403-53.701,6.823-83.904c-24.809-48.261-36.172-103.175-38.123-146.124
						c-0.151-3.361-0.264-6.923-0.328-10.625c-11.821-46.329,2.182-97.954,20.055-147.663c0.129-0.357,0.34-0.657,0.484-1.007
						c-7.199-28.153-9.692-57.352-7.093-86.284c0.247-2.74,0.549-5.49,0.849-8.237c-29.34-38.452-44.718-89.899-41.628-134.214
						c3.368-48.235,23.56-91.881,61.079-131.62c-7.549-18.627-11.262-37.581-10.905-56.762
						c2.162-116.247,80.128-316.306,246.197-480.853C1293.125,1101.383,1560.456,931.656,2011.64,931.656 M2011.64,907.341
						c-460.546,0-733.51,174.668-881.398,321.194c-170.89,169.322-251.144,376.673-253.396,497.674
						c-0.321,17.291,2.186,34.633,7.467,51.73c-34.798,40.767-54.154,86.253-57.586,135.411
						c-3.315,47.544,12.188,101.305,40.755,142.672c-2.505,28.736-0.491,57.697,5.988,86.212
						c-16.826,47.782-31.358,102.516-19.408,153.395c0.07,2.951,0.17,5.806,0.292,8.537c2.292,50.474,15.635,103.937,36.831,148.176
						c-6.175,30.699-6.472,61.046-5.53,81.861c2.879,63.39,25.6,152.177,80.737,211.269
						c43.46,46.581,101.487,87.962,182.612,130.228c281.793,146.802,573.01,221.028,890.292,226.918
						c13.353,0.247,26.938,0.372,40.377,0.372c104.074,0,212.434-7.544,322.064-22.424
						c204.497-27.755,409.64-107.964,562.831-220.064c82.88-60.655,142.115-130.76,171.307-202.735
						c19.123-47.149,20.369-99.44,3.742-159.529c14.856-22.194,26.933-44.675,35.973-66.974
						c13.806-34.034,18.469-71.862,13.89-112.551c15.601-32.173,13.286-73.758-6.206-114.334
						c19.288-41.01,28.352-89.283,25.861-137.304c36.543-46.617,57.872-113.351,54.801-173.088
						c-3.613-70.239-35.525-136.429-82.307-172.409c-7.542-67.422-31.617-145.685-68.374-221.85
						c-47.569-98.574-112.905-188.754-194.191-268.035c-97.136-94.736-213.923-170.146-347.118-224.13
						c-154.629-62.674-331.555-96.283-525.859-99.898C2034.596,907.449,2023.006,907.341,2011.64,907.341L2011.64,907.341z"/>
				</g>
			</g>
		</g>
	</g>
</g>
</svg>
