<?xml version="1.0" encoding="UTF-8"?>
<svg id="Layer_1" xmlns="http://www.w3.org/2000/svg" version="1.1" viewBox="0 0 2200 2200">
  <!-- Generator: Adobe Illustrator 29.8.1, SVG Export Plug-In . SVG Version: 2.1.1 Build 2)  -->
  <g id="Objects">
    <g>
      <path d="M1819.1,974.99c2.03-1.44,3.22-2.54,0,0h0Z"/>
      <path d="M520.4,791.23h70.27c6.4,0,11.31-6.17,13.38-11.71,1.37-3.68,2.51-13.32-3.97-13.32h-70.27c-6.4,0-11.31,6.17-13.38,11.71-1.37,3.68-2.51,13.32,3.97,13.32Z"/>
      <path d="M660.06,672.65h64.12c6.4,0,11.31-6.17,13.38-11.71,1.37-3.68,2.51-13.32-3.97-13.32h-64.12c-6.4,0-11.31,6.17-13.38,11.71-1.37,3.68-2.51,13.32,3.97,13.32Z"/>
      <path d="M831.78,798.84h64.12c6.4,0,11.31-6.17,13.38-11.71,1.37-3.68,2.51-13.32-3.97-13.32h-64.12c-6.4,0-11.31,6.17-13.38,11.71-1.37,3.68-2.51,13.32,3.97,13.32Z"/>
      <path d="M1061.92,698.71h64.12c6.4,0,11.31-6.17,13.38-11.71,1.37-3.68,2.51-13.32-3.97-13.32h-64.12c-6.4,0-11.31,6.17-13.38,11.71-1.37,3.68-2.51,13.32,3.97,13.32Z"/>
      <path d="M1397.45,688.17h64.12c6.4,0,11.31-6.17,13.38-11.71,1.37-3.68,2.51-13.32-3.97-13.32h-64.12c-6.4,0-11.31,6.17-13.38,11.71-1.37,3.68-2.51,13.32,3.97,13.32Z"/>
      <path d="M1597.72,791.23h64.12c6.4,0,11.31-6.17,13.38-11.71,1.37-3.68,2.51-13.32-3.97-13.32h-64.12c-6.4,0-11.31,6.17-13.38,11.71-1.37,3.68-2.51,13.32,3.97,13.32Z"/>
      <path d="M1054.89,907.76h64.12c6.4,0,11.31-6.17,13.38-11.71,1.37-3.68,2.51-13.32-3.97-13.32h-64.12c-6.4,0-11.31,6.17-13.38,11.71-1.37,3.68-2.51,13.32,3.97,13.32Z"/>
      <path d="M1342.99,842.76h64.12c6.4,0,11.31-6.17,13.38-11.71,1.37-3.68,2.51-13.32-3.97-13.32h-64.12c-6.4,0-11.31,6.17-13.38,11.71-1.37,3.68-2.51,13.32,3.97,13.32Z"/>
      <path d="M863.84,593.3h64.12c6.4,0,11.31-6.17,13.38-11.71,1.37-3.68,2.51-13.32-3.97-13.32h-64.12c-6.4,0-11.31,6.17-13.38,11.71-1.37,3.68-2.5,13.32,3.97,13.32Z"/>
      <path d="M1194.11,561.68h64.12c6.4,0,11.31-6.17,13.38-11.71,1.37-3.68,2.51-13.32-3.97-13.32h-64.12c-6.4,0-11.31,6.17-13.38,11.71-1.37,3.68-2.51,13.32,3.97,13.32Z"/>
      <path d="M701.77,931.33c-1.37,3.68-2.51,13.32,3.97,13.32h64.12c6.4,0,11.31-6.17,13.38-11.71,1.37-3.68,2.51-13.32-3.97-13.32h-64.12c-6.4,0-11.31,6.17-13.38,11.71Z"/>
      <path d="M1951.61,1235.28c-21.56-28.56-46.27-54.54-73.57-77.61,15.62-20.66,26.57-45.07,29.4-70.88,3.62-33.1-5.49-66.22-25.57-92.86-6-7.96-12.95-15.24-20.58-21.71,49.94-59.82,41.91-153.21,21.07-223.81-24.59-83.31-73.59-158.43-136.06-218.32-68.12-65.31-151.03-111.98-240.3-141.82-88.89-29.71-182.84-44.42-276.44-46.8-59.69-1.52-119.49-1.07-179.19-.76-73.01.38-145.55,3.21-217.7,15.67-96.97,16.74-192.43,48.92-276.05,101.45-75.95,47.71-141.41,112.41-187.87,189.29-23.3,38.55-41.23,80.1-53.21,123.52-11.33,41.05-17.85,84.96-12.23,127.45,3.52,26.6,11.74,51.92,26.82,73.04-14.57,26.53-26.46,56.43-28.6,86.27-2.04,28.48,4.63,59.76,20.25,83.86,3.5,5.41,7.53,10.42,11.95,15.06-29.99,24.54-56.98,52.72-80.32,83.65-4.21,5.58-13.84,27.53.48,28.5,29.07,1.97,58.1,4.46,87.09,7.48-17.17,49.36-12.89,106.11,12.34,151.85.67,1.22,1.37,2.42,2.07,3.62-26.8,40.93-38.72,91.4-36.39,139.99,2.92,60.95,28.28,119.88,72.49,162.26,49.24,47.2,115.56,72.26,180.58,89.05,74.58,19.26,151.82,27.09,228.54,31.49,89.22,5.11,178.67,5.19,268.01,5.22,90.51.03,181.09.48,271.56-3.04,79.65-3.1,159.79-8.97,238.02-24.88,67.15-13.66,136.37-35.01,192.73-75.16,52.66-37.51,89.73-95.66,101.06-159.35,8.96-50.38,2.85-106.94-26.23-150.18-3.54-5.27-7.48-10.14-11.73-14.74,27.47-41.55,37.77-92.26,29.51-141.89-.89-5.34-2-10.58-3.34-15.74,10.4-1.02,20.8-1.99,31.2-2.87,13.68-1.16,27.38-2.19,41.07-3.11,12.38-.84,28.12-21.31,19.16-33.18ZM337.46,787.8c17.32-81.15,59.63-152.62,116.39-212.75,60.6-64.2,138.53-111.68,221.14-142.64,90.41-33.88,186.9-50.13,283.14-54.15,56.22-2.35,112.69-1.44,168.94-1.27,66.59.19,132.81.9,198.98,9.69,95.46,12.67,189.55,39.15,274.32,85.52,76.04,41.6,142.75,99.29,192.03,170.84,23.66,34.35,43.05,71.53,56.61,111,13.32,38.75,22.25,80.14,20.91,121.29-.58,17.91-3.57,35.87-9.57,51.57-2.8,7.32-6.01,13.82-10.28,19.95-3.47,4.98-7.81,9.7-13.01,14.25-2.47,1.2-4.88,3.21-7.02,5.68-2.73,2.12-5.46,4.24-8.24,6.29-1.06.78-2.18,1.5-3.21,2.32.18-.14.33-.27.49-.39-.26.18-.52.36-.79.55-2.71,1.82-5.46,3.58-8.25,5.26-7.06,4.26-14.37,8.09-21.84,11.59-4.38,2.05-8.83,3.92-13.27,5.82-.44.18-.89.35-1.33.53-1.31.52-2.62,1.02-3.93,1.52-2.87,1.09-5.75,2.15-8.65,3.18-30.85,10.95-62.84,18.61-94.93,24.93-50.85,10.01-102.38,16.49-153.95,21.48-75.94,7.35-152.23,11.11-228.47,13.35-101.56,2.99-203.24,3.25-304.81,1.21-81.73-1.64-163.48-4.93-244.96-11.66-55.73-4.6-111.43-10.72-166.53-20.37-19.68-3.45-39.3-7.36-58.74-12-8.11-1.94-16.2-4-24.24-6.22-3.73-1.03-7.44-2.09-11.15-3.2-1.7-.51-3.39-1.03-5.09-1.54-.1-.03-.18-.05-.26-.08-.77-.24-1.54-.48-2.3-.73-20.18-6.48-40.12-14.17-58.72-24.42-10.44-5.75-20.19-12.46-29.6-19.75-53.79-41.7-52.79-115.87-39.83-176.62ZM329.94,1046.91c.13-10.43,4.13-24.21,8.38-35.67,2.66-7.18,5.61-14.08,8.89-20.84,2.32,2.12,4.74,4.17,7.27,6.15,3.7,2.88,7.4,5.77,11.2,8.52,12.28,8.89,25.55,16.26,39.35,22.5,25.17,11.39,51.85,19.53,78.57,26.35,42.61,10.88,86.14,18.12,129.71,23.9,67.07,8.89,134.61,14.08,202.16,17.65,96.58,5.1,193.33,6.68,290.03,6.51,94.74-.16,189.53-2.07,284.13-7.55,66.14-3.83,132.29-9.28,197.93-18.43,42.16-5.87,84.26-13.21,125.42-24.16,25.97-6.91,51.69-15.36,76.04-26.8,14.42-6.77,27.91-14.96,40.73-24.4.67-.49,1.33-1.01,1.99-1.51,22.82,16.51,39.78,40.73,45.94,68.42,2.91,13.11,2.65,26.3-.27,39.32-2.32,10.38-8.48,22.98-14.23,30.67-15.3,20.45-38.02,35.67-64.69,40.28-33.19,5.74-67.42-5.82-99.09-14.37-33.63-9.08-67.11-15.13-101.63-6.95-33.2,7.87-63.03,25.2-95.14,36.19-32.72,11.19-65.43,11.52-99.2,5.07-35.36-6.76-69.37-18.97-104.32-27.44-33.71-8.17-67.14-10.89-101.68-7.56-32.99,3.18-65.26,11.17-97.08,20.19-62.44,17.7-126.01,41.64-191.88,39.43-32.94-1.11-63.9-9.9-94-22.92-29.79-12.88-58.3-28.54-88.22-41.11-29.46-12.38-60.83-21.98-93.06-21.75-35.02.25-68.81,10.06-102.47,18.6-31.29,7.95-63.7,15.27-96,9.17-20.85-3.94-42.33-12.96-59.98-24.71-18.04-12.02-31.77-29.25-38.56-49.94-4.53-13.8-6.42-28.28-6.25-42.79ZM1844.91,1540.23c.19,1.15.36,2.3.53,3.45.05.49.34,2.74.35,2.84.33,2.96.6,5.92.81,8.89.46,6.55.61,13.13.46,19.69-.56,24.55-5.63,48.02-15.72,71.74-.66,1.54-1.35,3.06-2.02,4.59-.13.3-.23.54-.32.75-.08.16-.17.34-.28.55-1.53,3.03-3.06,6.06-4.7,9.04-3.06,5.56-6.38,10.99-9.92,16.26-.38.51-1.76,2.48-1.98,2.78-1.05,1.43-2.11,2.85-3.19,4.25-2.18,2.84-4.44,5.63-6.76,8.36-2.36,2.78-4.82,5.45-7.27,8.15-.36.4-.64.7-.85.94-.22.21-.51.49-.88.86-1.78,1.75-3.55,3.49-5.37,5.19-45.53,42.59-109.68,64.87-170.28,79.88-71.72,17.76-145.71,25.31-219.33,29.49-86.11,4.89-172.42,5.09-258.64,5.14-87.38.05-174.82.48-262.16-2.41-77.28-2.56-154.88-7.54-231.08-21.19-64.21-11.5-129.01-29.27-185.6-62.63-51.75-30.51-90.89-78.71-106.21-137.01-3.6-13.69-5.49-24.92-6.47-37.93-.48-6.36-.7-12.75-.66-19.13.02-3.15.11-6.31.25-9.46.07-1.56.16-3.13.27-4.69.07-.96.14-1.92.21-2.88.01-.15.03-.29.05-.47.63-6.12,1.49-12.22,2.61-18.27.55-2.98,1.16-5.95,1.84-8.91.33-1.47.68-2.93,1.05-4.39.15-.6,1.05-3.91,1.11-4.2,1.51-5.07,3.19-10.08,5.08-15.02,1.03-2.7,2.12-5.37,3.28-8.02.57-1.31,1.18-2.61,1.76-3.91-2.39,5.39.29-.54.83-1.59,1.42-2.78,2.92-5.53,4.48-8.23,10.41,12.81,22.65,24.17,36.13,33.62,23.83,16.71,52.27,26.09,79.42,35.91,122.57,44.31,251.45,68.4,381.02,79.97,135.75,12.12,273.36,12.75,409.3,3.25,130.55-9.12,260.91-29.37,385.6-69.96,30.17-9.82,60.21-20.57,89.37-33.09,21.93-9.41,41.7-23.43,58.5-40.35.99,1.08,1.97,2.16,2.92,3.28,3.53,4.13,6.76,8.5,9.73,13.05,2.84,4.35,5.42,8.86,7.77,13.49,2.01,3.96,3.89,8.27,6.05,14.12,4.08,11.07,7.02,22.55,8.94,34.19ZM1837.43,1355.04c-1.39,12.52-3.85,22.9-7.77,33.54-4.22,11.48-7.85,18.68-15.35,29.97-.24.37-.39.6-.48.74-.2.27-.44.58-.73.96-.84,1.13-1.67,2.27-2.53,3.38-1.72,2.24-3.49,4.43-5.32,6.58-4.42,5.19-6.26,7.13-11.32,11.74-9.24,8.41-18.68,15.14-29.63,21.05-24.97,13.49-53.16,22.34-79.95,31.47-117.17,39.95-240.07,61.81-363.23,72.23-129.94,10.99-261.45,11.59-391.55,2.98-124.83-8.26-249.52-26.91-369.34-63.57-28.65-8.77-56.96-18.7-84.84-29.67-24.28-9.55-47.47-20.4-66.61-38.59-35.67-33.89-54.8-83.6-48.2-132.6,1.19-8.81,2.74-17.95,5.37-26.59,74.68,8.57,148.96,20.69,222.41,36.71,113.07,24.65,224.2,58.52,330.84,103.6,53.26,22.52,105.35,47.82,155.76,76.15,5.68,3.19,13.76,10.27,20.6,8.65,6.89-1.62,13.99-7.42,20.14-10.85,12.75-7.13,25.6-14.06,38.55-20.8,25.51-13.28,51.41-25.82,77.63-37.66,105.02-47.42,215.17-83.21,327.19-109.92,87.85-20.94,177.09-36.37,266.86-46.52,10.73,23.16,14.23,52.41,11.51,76.99ZM1844.6,1241.07c-1.42-.26-2.99-.04-4.58.49-77.35,8.57-154.27,20.86-230.35,37.31-114.13,24.67-226.19,58.73-334.02,103.63-58.69,24.44-115.93,52.28-171.18,83.73-99.46-56.78-205.33-101.77-314.33-136.71-109.49-35.1-221.92-60.55-335.64-77.38-28.46-4.21-56.99-7.88-85.59-11.03-.8-.21-1.61-.29-2.42-.27-25.46-2.78-50.96-5.15-76.5-7.11,19.48-22.06,41.04-42.08,64.52-59.99,5.89,3.95,12.09,7.45,18.45,10.5,25.28,12.1,52.7,19.79,80.88,18.63,35.55-1.45,69.55-12.23,103.87-20.56,33.75-8.19,66.98-12.55,101.32-5.14,66.57,14.37,122.28,58.56,188.35,75.03,139.45,34.75,267.58-73.18,406.95-51.81,72.26,11.08,141.75,49.75,216.47,34.93,34.86-6.91,65.93-25.13,99.18-36.82,16.5-5.8,33.62-10.06,51.21-9.9,17.86.16,35.49,3.73,52.74,8.09,34.47,8.71,69.01,21.22,105.12,18.35,26.37-2.1,51.22-12.66,71.73-29.06,18.55,15.12,35.78,31.67,51.67,49.48-19.31,1.64-38.6,3.52-57.86,5.61Z"/>
    </g>
  </g>
</svg>